<mxfile host="app.diagrams.net" modified="2023-04-20T11:43:03.895Z" agent="Mozilla/5.0 (X11; Linux x86_64; rv:109.0) Gecko/20100101 Firefox/112.0" etag="F0IB-oeD744t6dKd5iZ3" version="21.1.9" type="device">
  <diagram name="Page-1" id="c8WvUJZ3-kTaqvucmZ4j">
    <mxGraphModel dx="989" dy="545" grid="1" gridSize="10" guides="1" tooltips="1" connect="1" arrows="1" fold="1" page="1" pageScale="1" pageWidth="850" pageHeight="1100" math="0" shadow="0">
      <root>
        <mxCell id="0" />
        <mxCell id="1" parent="0" />
        <mxCell id="WkWhA8R5jcSKiR4FBNcN-5" style="edgeStyle=orthogonalEdgeStyle;rounded=0;orthogonalLoop=1;jettySize=auto;html=1;exitX=0.5;exitY=1;exitDx=0;exitDy=0;entryX=0.5;entryY=0;entryDx=0;entryDy=0;endArrow=classic;endFill=1;" edge="1" parent="1" source="WkWhA8R5jcSKiR4FBNcN-2" target="WkWhA8R5jcSKiR4FBNcN-4">
          <mxGeometry relative="1" as="geometry" />
        </mxCell>
        <mxCell id="WkWhA8R5jcSKiR4FBNcN-2" value="START" style="ellipse;whiteSpace=wrap;html=1;aspect=fixed;" vertex="1" parent="1">
          <mxGeometry x="365" y="50" width="70" height="70" as="geometry" />
        </mxCell>
        <mxCell id="WkWhA8R5jcSKiR4FBNcN-7" style="edgeStyle=orthogonalEdgeStyle;rounded=0;orthogonalLoop=1;jettySize=auto;html=1;exitX=0.5;exitY=1;exitDx=0;exitDy=0;endArrow=classic;endFill=1;" edge="1" parent="1" source="WkWhA8R5jcSKiR4FBNcN-4" target="WkWhA8R5jcSKiR4FBNcN-6">
          <mxGeometry relative="1" as="geometry" />
        </mxCell>
        <mxCell id="WkWhA8R5jcSKiR4FBNcN-9" style="edgeStyle=orthogonalEdgeStyle;rounded=0;orthogonalLoop=1;jettySize=auto;html=1;exitX=1;exitY=0.5;exitDx=0;exitDy=0;entryX=0.5;entryY=0;entryDx=0;entryDy=0;endArrow=classic;endFill=1;" edge="1" parent="1" source="WkWhA8R5jcSKiR4FBNcN-4" target="WkWhA8R5jcSKiR4FBNcN-8">
          <mxGeometry relative="1" as="geometry" />
        </mxCell>
        <mxCell id="WkWhA8R5jcSKiR4FBNcN-4" value="&lt;div&gt;First&lt;/div&gt;&lt;div&gt;access?&lt;/div&gt;" style="rhombus;whiteSpace=wrap;html=1;" vertex="1" parent="1">
          <mxGeometry x="360" y="160" width="80" height="80" as="geometry" />
        </mxCell>
        <mxCell id="WkWhA8R5jcSKiR4FBNcN-10" style="edgeStyle=orthogonalEdgeStyle;rounded=0;orthogonalLoop=1;jettySize=auto;html=1;exitX=1;exitY=0.5;exitDx=0;exitDy=0;entryX=0.5;entryY=1;entryDx=0;entryDy=0;endArrow=none;endFill=0;startArrow=classic;startFill=1;" edge="1" parent="1" source="WkWhA8R5jcSKiR4FBNcN-6" target="WkWhA8R5jcSKiR4FBNcN-8">
          <mxGeometry relative="1" as="geometry" />
        </mxCell>
        <mxCell id="WkWhA8R5jcSKiR4FBNcN-14" value="" style="edgeStyle=orthogonalEdgeStyle;rounded=0;orthogonalLoop=1;jettySize=auto;html=1;endArrow=classic;endFill=1;" edge="1" parent="1" source="WkWhA8R5jcSKiR4FBNcN-6" target="WkWhA8R5jcSKiR4FBNcN-13">
          <mxGeometry relative="1" as="geometry" />
        </mxCell>
        <mxCell id="WkWhA8R5jcSKiR4FBNcN-6" value="Show Fridge Page" style="rounded=0;whiteSpace=wrap;html=1;" vertex="1" parent="1">
          <mxGeometry x="340" y="280" width="120" height="60" as="geometry" />
        </mxCell>
        <mxCell id="WkWhA8R5jcSKiR4FBNcN-8" value="Show Onboarding Screen" style="rounded=0;whiteSpace=wrap;html=1;" vertex="1" parent="1">
          <mxGeometry x="520" y="220" width="120" height="60" as="geometry" />
        </mxCell>
        <mxCell id="WkWhA8R5jcSKiR4FBNcN-11" value="YES" style="text;html=1;strokeColor=none;fillColor=none;align=center;verticalAlign=middle;whiteSpace=wrap;rounded=0;" vertex="1" parent="1">
          <mxGeometry x="435" y="180" width="60" height="30" as="geometry" />
        </mxCell>
        <mxCell id="WkWhA8R5jcSKiR4FBNcN-12" value="NO" style="text;html=1;align=center;verticalAlign=middle;resizable=0;points=[];autosize=1;strokeColor=none;fillColor=none;" vertex="1" parent="1">
          <mxGeometry x="365" y="235" width="40" height="30" as="geometry" />
        </mxCell>
        <mxCell id="WkWhA8R5jcSKiR4FBNcN-19" style="edgeStyle=orthogonalEdgeStyle;rounded=0;orthogonalLoop=1;jettySize=auto;html=1;exitX=0.5;exitY=1;exitDx=0;exitDy=0;entryX=0.5;entryY=0;entryDx=0;entryDy=0;endArrow=classic;endFill=1;" edge="1" parent="1" source="WkWhA8R5jcSKiR4FBNcN-13" target="WkWhA8R5jcSKiR4FBNcN-18">
          <mxGeometry relative="1" as="geometry" />
        </mxCell>
        <mxCell id="WkWhA8R5jcSKiR4FBNcN-20" style="edgeStyle=orthogonalEdgeStyle;rounded=0;orthogonalLoop=1;jettySize=auto;html=1;exitX=0.5;exitY=1;exitDx=0;exitDy=0;entryX=0.5;entryY=0;entryDx=0;entryDy=0;endArrow=classic;endFill=1;" edge="1" parent="1" source="WkWhA8R5jcSKiR4FBNcN-13" target="WkWhA8R5jcSKiR4FBNcN-16">
          <mxGeometry relative="1" as="geometry" />
        </mxCell>
        <mxCell id="WkWhA8R5jcSKiR4FBNcN-21" style="edgeStyle=orthogonalEdgeStyle;rounded=0;orthogonalLoop=1;jettySize=auto;html=1;exitX=0.5;exitY=1;exitDx=0;exitDy=0;entryX=0.5;entryY=0;entryDx=0;entryDy=0;endArrow=classic;endFill=1;" edge="1" parent="1" source="WkWhA8R5jcSKiR4FBNcN-13" target="WkWhA8R5jcSKiR4FBNcN-15">
          <mxGeometry relative="1" as="geometry" />
        </mxCell>
        <mxCell id="WkWhA8R5jcSKiR4FBNcN-24" style="edgeStyle=orthogonalEdgeStyle;rounded=0;orthogonalLoop=1;jettySize=auto;html=1;exitX=0.5;exitY=1;exitDx=0;exitDy=0;entryX=0.5;entryY=0;entryDx=0;entryDy=0;endArrow=classic;endFill=1;" edge="1" parent="1" source="WkWhA8R5jcSKiR4FBNcN-13" target="WkWhA8R5jcSKiR4FBNcN-17">
          <mxGeometry relative="1" as="geometry" />
        </mxCell>
        <mxCell id="WkWhA8R5jcSKiR4FBNcN-13" value="Menu selection" style="rhombus;whiteSpace=wrap;html=1;" vertex="1" parent="1">
          <mxGeometry x="360" y="380" width="80" height="80" as="geometry" />
        </mxCell>
        <mxCell id="WkWhA8R5jcSKiR4FBNcN-15" value="Show Food Banks Map" style="rounded=0;whiteSpace=wrap;html=1;" vertex="1" parent="1">
          <mxGeometry x="420" y="500" width="120" height="60" as="geometry" />
        </mxCell>
        <mxCell id="WkWhA8R5jcSKiR4FBNcN-27" style="edgeStyle=orthogonalEdgeStyle;rounded=0;orthogonalLoop=1;jettySize=auto;html=1;exitX=0.5;exitY=1;exitDx=0;exitDy=0;entryX=0.5;entryY=0;entryDx=0;entryDy=0;endArrow=classic;endFill=1;" edge="1" parent="1" source="WkWhA8R5jcSKiR4FBNcN-16" target="WkWhA8R5jcSKiR4FBNcN-26">
          <mxGeometry relative="1" as="geometry" />
        </mxCell>
        <mxCell id="WkWhA8R5jcSKiR4FBNcN-16" value="Show Add Page" style="rounded=0;whiteSpace=wrap;html=1;" vertex="1" parent="1">
          <mxGeometry x="260" y="500" width="120" height="60" as="geometry" />
        </mxCell>
        <mxCell id="WkWhA8R5jcSKiR4FBNcN-17" value="Show Settings Page" style="rounded=0;whiteSpace=wrap;html=1;" vertex="1" parent="1">
          <mxGeometry x="580" y="500" width="120" height="60" as="geometry" />
        </mxCell>
        <mxCell id="WkWhA8R5jcSKiR4FBNcN-40" value="" style="edgeStyle=orthogonalEdgeStyle;rounded=0;orthogonalLoop=1;jettySize=auto;html=1;endArrow=classic;endFill=1;" edge="1" parent="1" source="WkWhA8R5jcSKiR4FBNcN-18" target="WkWhA8R5jcSKiR4FBNcN-39">
          <mxGeometry relative="1" as="geometry" />
        </mxCell>
        <mxCell id="WkWhA8R5jcSKiR4FBNcN-50" style="edgeStyle=orthogonalEdgeStyle;rounded=0;orthogonalLoop=1;jettySize=auto;html=1;exitX=0;exitY=0.5;exitDx=0;exitDy=0;entryX=0;entryY=0.5;entryDx=0;entryDy=0;endArrow=none;endFill=0;" edge="1" parent="1" source="WkWhA8R5jcSKiR4FBNcN-18" target="WkWhA8R5jcSKiR4FBNcN-44">
          <mxGeometry relative="1" as="geometry">
            <Array as="points">
              <mxPoint x="40" y="530" />
              <mxPoint x="40" y="850" />
            </Array>
          </mxGeometry>
        </mxCell>
        <mxCell id="WkWhA8R5jcSKiR4FBNcN-18" value="Show Fridge Page" style="rounded=0;whiteSpace=wrap;html=1;" vertex="1" parent="1">
          <mxGeometry x="100" y="500" width="120" height="60" as="geometry" />
        </mxCell>
        <mxCell id="WkWhA8R5jcSKiR4FBNcN-29" style="edgeStyle=orthogonalEdgeStyle;rounded=0;orthogonalLoop=1;jettySize=auto;html=1;exitX=0.5;exitY=1;exitDx=0;exitDy=0;entryX=0.5;entryY=0;entryDx=0;entryDy=0;endArrow=classic;endFill=1;" edge="1" parent="1" source="WkWhA8R5jcSKiR4FBNcN-26" target="WkWhA8R5jcSKiR4FBNcN-28">
          <mxGeometry relative="1" as="geometry" />
        </mxCell>
        <mxCell id="WkWhA8R5jcSKiR4FBNcN-32" style="edgeStyle=orthogonalEdgeStyle;rounded=0;orthogonalLoop=1;jettySize=auto;html=1;exitX=1;exitY=0.5;exitDx=0;exitDy=0;entryX=1;entryY=1;entryDx=0;entryDy=0;endArrow=none;endFill=0;" edge="1" parent="1" source="WkWhA8R5jcSKiR4FBNcN-26" target="WkWhA8R5jcSKiR4FBNcN-16">
          <mxGeometry relative="1" as="geometry">
            <Array as="points">
              <mxPoint x="400" y="640" />
              <mxPoint x="400" y="560" />
            </Array>
          </mxGeometry>
        </mxCell>
        <mxCell id="WkWhA8R5jcSKiR4FBNcN-26" value="Barcode detected?" style="rhombus;whiteSpace=wrap;html=1;" vertex="1" parent="1">
          <mxGeometry x="280" y="600" width="80" height="80" as="geometry" />
        </mxCell>
        <mxCell id="WkWhA8R5jcSKiR4FBNcN-31" style="edgeStyle=orthogonalEdgeStyle;rounded=0;orthogonalLoop=1;jettySize=auto;html=1;exitX=0.5;exitY=1;exitDx=0;exitDy=0;endArrow=classic;endFill=1;" edge="1" parent="1" source="WkWhA8R5jcSKiR4FBNcN-28" target="WkWhA8R5jcSKiR4FBNcN-30">
          <mxGeometry relative="1" as="geometry" />
        </mxCell>
        <mxCell id="WkWhA8R5jcSKiR4FBNcN-28" value="Show Product Page" style="rounded=1;whiteSpace=wrap;html=1;" vertex="1" parent="1">
          <mxGeometry x="260" y="720" width="120" height="60" as="geometry" />
        </mxCell>
        <mxCell id="WkWhA8R5jcSKiR4FBNcN-36" style="edgeStyle=orthogonalEdgeStyle;rounded=0;orthogonalLoop=1;jettySize=auto;html=1;exitX=0.5;exitY=1;exitDx=0;exitDy=0;entryX=1;entryY=1;entryDx=0;entryDy=0;endArrow=classic;endFill=1;" edge="1" parent="1" source="WkWhA8R5jcSKiR4FBNcN-30" target="WkWhA8R5jcSKiR4FBNcN-18">
          <mxGeometry relative="1" as="geometry" />
        </mxCell>
        <mxCell id="WkWhA8R5jcSKiR4FBNcN-37" style="edgeStyle=orthogonalEdgeStyle;rounded=0;orthogonalLoop=1;jettySize=auto;html=1;exitX=1;exitY=0.5;exitDx=0;exitDy=0;entryX=1;entryY=1;entryDx=0;entryDy=0;endArrow=classic;endFill=1;" edge="1" parent="1" source="WkWhA8R5jcSKiR4FBNcN-30" target="WkWhA8R5jcSKiR4FBNcN-16">
          <mxGeometry relative="1" as="geometry">
            <Array as="points">
              <mxPoint x="400" y="860" />
              <mxPoint x="400" y="560" />
            </Array>
          </mxGeometry>
        </mxCell>
        <mxCell id="WkWhA8R5jcSKiR4FBNcN-30" value="&lt;div&gt;Add &lt;br&gt;&lt;/div&gt;&lt;div&gt;product?&lt;/div&gt;" style="rhombus;whiteSpace=wrap;html=1;" vertex="1" parent="1">
          <mxGeometry x="280" y="820" width="80" height="80" as="geometry" />
        </mxCell>
        <mxCell id="WkWhA8R5jcSKiR4FBNcN-33" value="YES" style="text;html=1;align=center;verticalAlign=middle;resizable=0;points=[];autosize=1;strokeColor=none;fillColor=none;" vertex="1" parent="1">
          <mxGeometry x="280" y="680" width="50" height="30" as="geometry" />
        </mxCell>
        <mxCell id="WkWhA8R5jcSKiR4FBNcN-34" value="NO" style="text;html=1;align=center;verticalAlign=middle;resizable=0;points=[];autosize=1;strokeColor=none;fillColor=none;" vertex="1" parent="1">
          <mxGeometry x="350" y="640" width="40" height="30" as="geometry" />
        </mxCell>
        <mxCell id="WkWhA8R5jcSKiR4FBNcN-35" value="YES" style="text;html=1;align=center;verticalAlign=middle;resizable=0;points=[];autosize=1;strokeColor=none;fillColor=none;" vertex="1" parent="1">
          <mxGeometry x="280" y="900" width="50" height="30" as="geometry" />
        </mxCell>
        <mxCell id="WkWhA8R5jcSKiR4FBNcN-38" value="NO" style="text;html=1;align=center;verticalAlign=middle;resizable=0;points=[];autosize=1;strokeColor=none;fillColor=none;" vertex="1" parent="1">
          <mxGeometry x="350" y="860" width="40" height="30" as="geometry" />
        </mxCell>
        <mxCell id="WkWhA8R5jcSKiR4FBNcN-39" value="&lt;div&gt;Create&lt;/div&gt;&lt;div&gt;recipe?&lt;/div&gt;" style="rhombus;whiteSpace=wrap;html=1;" vertex="1" parent="1">
          <mxGeometry x="100" y="600" width="80" height="80" as="geometry" />
        </mxCell>
        <mxCell id="WkWhA8R5jcSKiR4FBNcN-42" value="" style="edgeStyle=orthogonalEdgeStyle;rounded=0;orthogonalLoop=1;jettySize=auto;html=1;endArrow=none;endFill=0;startArrow=classic;startFill=1;" edge="1" parent="1" source="WkWhA8R5jcSKiR4FBNcN-41" target="WkWhA8R5jcSKiR4FBNcN-39">
          <mxGeometry relative="1" as="geometry" />
        </mxCell>
        <mxCell id="WkWhA8R5jcSKiR4FBNcN-46" value="" style="edgeStyle=orthogonalEdgeStyle;rounded=0;orthogonalLoop=1;jettySize=auto;html=1;endArrow=classic;endFill=1;" edge="1" parent="1" source="WkWhA8R5jcSKiR4FBNcN-41" target="WkWhA8R5jcSKiR4FBNcN-44">
          <mxGeometry relative="1" as="geometry" />
        </mxCell>
        <mxCell id="WkWhA8R5jcSKiR4FBNcN-41" value="&lt;div&gt;Contact OpenAI&lt;br&gt;&lt;/div&gt;&lt;div&gt;API&lt;/div&gt;" style="rounded=1;whiteSpace=wrap;html=1;" vertex="1" parent="1">
          <mxGeometry x="80" y="710" width="120" height="60" as="geometry" />
        </mxCell>
        <mxCell id="WkWhA8R5jcSKiR4FBNcN-48" value="" style="edgeStyle=orthogonalEdgeStyle;rounded=0;orthogonalLoop=1;jettySize=auto;html=1;endArrow=classic;endFill=1;" edge="1" parent="1" source="WkWhA8R5jcSKiR4FBNcN-44" target="WkWhA8R5jcSKiR4FBNcN-47">
          <mxGeometry relative="1" as="geometry" />
        </mxCell>
        <mxCell id="WkWhA8R5jcSKiR4FBNcN-44" value="Recipe created?" style="rhombus;whiteSpace=wrap;html=1;" vertex="1" parent="1">
          <mxGeometry x="100" y="810" width="80" height="80" as="geometry" />
        </mxCell>
        <mxCell id="WkWhA8R5jcSKiR4FBNcN-45" value="YES" style="text;html=1;align=center;verticalAlign=middle;resizable=0;points=[];autosize=1;strokeColor=none;fillColor=none;" vertex="1" parent="1">
          <mxGeometry x="130" y="680" width="50" height="30" as="geometry" />
        </mxCell>
        <mxCell id="WkWhA8R5jcSKiR4FBNcN-52" style="edgeStyle=orthogonalEdgeStyle;rounded=0;orthogonalLoop=1;jettySize=auto;html=1;entryX=0;entryY=0.5;entryDx=0;entryDy=0;endArrow=classic;endFill=1;" edge="1" parent="1" source="WkWhA8R5jcSKiR4FBNcN-47" target="WkWhA8R5jcSKiR4FBNcN-18">
          <mxGeometry relative="1" as="geometry">
            <Array as="points">
              <mxPoint x="40" y="960" />
              <mxPoint x="40" y="530" />
            </Array>
          </mxGeometry>
        </mxCell>
        <mxCell id="WkWhA8R5jcSKiR4FBNcN-47" value="Show Recipe" style="rounded=1;whiteSpace=wrap;html=1;" vertex="1" parent="1">
          <mxGeometry x="80" y="930" width="120" height="60" as="geometry" />
        </mxCell>
        <mxCell id="WkWhA8R5jcSKiR4FBNcN-49" value="YES" style="text;html=1;align=center;verticalAlign=middle;resizable=0;points=[];autosize=1;strokeColor=none;fillColor=none;" vertex="1" parent="1">
          <mxGeometry x="130" y="890" width="50" height="30" as="geometry" />
        </mxCell>
        <mxCell id="WkWhA8R5jcSKiR4FBNcN-51" value="NO" style="text;html=1;align=center;verticalAlign=middle;resizable=0;points=[];autosize=1;strokeColor=none;fillColor=none;" vertex="1" parent="1">
          <mxGeometry x="60" y="820" width="40" height="30" as="geometry" />
        </mxCell>
      </root>
    </mxGraphModel>
  </diagram>
</mxfile>
